<?xml version="1.0" standalone="no"?>
<!DOCTYPE svg PUBLIC "-//W3C//DTD SVG 20010904//EN"
 "http://www.w3.org/TR/2001/REC-SVG-20010904/DTD/svg10.dtd">
<svg version="1.0" xmlns="http://www.w3.org/2000/svg"
 width="16.000000pt" height="16.000000pt" viewBox="0 0 16.000000 16.000000"
 preserveAspectRatio="xMidYMid meet">
<metadata>
Created by potrace 1.11, written by Peter Selinger 2001-2013
</metadata>
<g transform="translate(0.000000,16.000000) scale(0.007273,-0.007273)"
fill="#000000" stroke="none">
<path d="M738 1365 c-4 -4 -87 -10 -187 -15 -208 -9 -239 -19 -314 -99 -90
-96 -112 -171 -116 -394 -3 -133 6 -147 93 -147 44 0 67 5 76 15 8 10 13 61
14 158 3 159 8 178 72 240 38 37 93 62 117 54 7 -2 12 -24 12 -59 0 -40 5 -62
19 -76 13 -16 17 -31 13 -61 -2 -23 -1 -41 3 -41 4 0 7 -14 8 -31 2 -64 58
-131 149 -178 39 -19 52 -20 165 -14 115 6 127 9 193 42 113 58 150 132 164
321 l6 85 36 3 c50 4 61 -14 70 -121 11 -131 37 -195 103 -251 85 -73 122 -86
257 -86 104 0 120 2 167 26 104 52 158 151 175 320 10 106 13 117 34 127 28
13 37 43 30 104 -9 84 45 78 -695 81 -362 2 -660 0 -664 -3z m299 -173 c7 -5
18 -34 24 -65 15 -75 -8 -156 -60 -208 -31 -31 -45 -37 -96 -43 -65 -8 -132 3
-169 27 -50 33 -64 105 -48 232 l7 50 131 5 c71 3 146 6 165 7 19 2 40 -1 46
-5z m843 -96 c0 -171 -66 -239 -218 -226 -90 9 -124 32 -151 106 -20 53 -27
136 -15 181 6 22 10 23 178 25 94 2 179 -1 189 -5 14 -6 17 -21 17 -81z"/>
</g>
</svg>
